<?xml version="1.0" encoding="UTF-8"?>
<svg id="Layer_2" data-name="Layer 2" xmlns="http://www.w3.org/2000/svg" viewBox="0 0 205.77 107.05">
  <defs>
    <style>
      .cls-1 {
        fill: #00542a;
      }

      .cls-2 {
        fill: #ffdd19;
      }

      .cls-3 {
        fill: #fff;
      }

      .cls-4, .cls-5 {
        fill: #01381b;
      }

      .cls-6 {
        fill: none;
        stroke: #fff;
        stroke-linecap: round;
        stroke-miterlimit: 10;
        stroke-width: 1.36px;
      }

      .cls-5 {
        font-family: BalooBhaijaan2-Regular, 'Baloo Bhaijaan 2';
        font-size: 15.09px;
      }
    </style>
  </defs>
  <g id="Layer_1-2" data-name="Layer 1">
    <g>
      <path class="cls-4" d="M13.52,87.48c.06.86.09,1.3.16,2.16h-7.33c-.06-.1-.13-.25-.19-.44s-.09-.39-.09-.59c0-.35.08-.63.25-.83.17-.2.41-.3.72-.3h6.48ZM12.21,88.79h2.54v17.66c-.1.04-.27.09-.49.14s-.44.08-.67.08c-.46,0-.8-.09-1.03-.28-.23-.19-.34-.48-.34-.88v-16.72ZM13.46,89.64c-.06-.86-.09-1.3-.16-2.16h7.3c.06.08.13.22.19.41.06.19.09.39.09.6,0,.33-.08.61-.25.83s-.41.33-.72.33h-6.45Z"/>
      <path class="cls-4" d="M29.18,98.75c-1.01-.01-1.52-.02-2.54-.03v-9.86c0-.42.13-.75.38-1s.58-.38,1-.38c.23,0,.46.03.69.09.23.06.39.12.47.16v11.02ZM26.64,95.05h2.54v11.21c-.08.02-.24.07-.47.14-.23.07-.46.11-.69.11-.42,0-.75-.13-1-.39-.25-.26-.38-.59-.38-.99v-10.08ZM28.02,89.64v-2.16c4.16,0,6.24,0,10.4,0,.06.08.13.22.19.41.06.19.09.39.09.6,0,.33-.08.61-.25.83-.17.22-.41.33-.72.33-3.88,0-5.82,0-9.71,0ZM28.02,97.81v-2.13c3.77,0,5.66,0,9.43,0,.06.08.12.22.19.41.06.19.09.39.09.59,0,.33-.08.61-.25.81-.17.21-.41.31-.72.31h-8.74ZM28.02,106.52v-2.13h10.55c.06.08.12.21.19.39.06.18.09.38.09.61,0,.33-.08.61-.25.81-.17.21-.41.31-.72.31h-9.86Z"/>
      <path class="cls-4" d="M60.56,103.42v-.13,2.88c-.19.15-.43.27-.72.38-.29.1-.62.16-.97.16-.5,0-.93-.1-1.28-.3-.35-.2-.68-.56-.97-1.08-2.38-4.01-3.57-6.01-5.95-10.02-.31-.56-.66-1.19-1.03-1.86-.38-.68-.73-1.33-1.06-1.94-.33-.62-.59-1.12-.78-1.52-.93.24-1.39.36-2.32.6,0-1.09,0-1.63,0-2.72.17-.17.4-.3.7-.41.3-.1.63-.16.99-.16.5,0,.93.1,1.28.3.35.2.68.56.97,1.08,2.39,4.01,3.59,6.01,5.98,10.02.33.56.68,1.19,1.05,1.86.36.68.7,1.33,1.02,1.94s.56,1.12.75,1.52c.94-.24,1.41-.36,2.35-.59ZM45.46,89.64c.85-.08,1.28-.11,2.13-.19.08.65.16,1.41.22,2.29s.11,1.78.14,2.71c.03.93.05,1.81.05,2.65,0,3.75,0,5.62,0,9.36-.1.04-.27.09-.49.14s-.44.08-.67.08c-.46,0-.8-.09-1.03-.27-.23-.18-.34-.46-.34-.86v-15.91ZM60.56,104.35c-.86.08-1.3.11-2.16.19-.21-1.75-.33-3.54-.36-5.37-.03-1.83-.05-3.6-.05-5.31,0-2.53,0-3.8,0-6.33.13-.04.29-.09.5-.14.21-.05.44-.08.69-.08.46,0,.8.09,1.03.27.23.18.34.46.34.86,0,6.36,0,9.55,0,15.91Z"/>
      <path class="cls-4" d="M83.42,103.42v-.13c0,1.15,0,1.73,0,2.88-.19.15-.43.27-.72.38-.29.1-.62.16-.97.16-.5,0-.93-.1-1.28-.3-.35-.2-.68-.56-.97-1.08-2.38-4.01-3.57-6.01-5.95-10.02-.31-.56-.66-1.19-1.03-1.86-.38-.68-.73-1.33-1.06-1.94-.33-.62-.59-1.12-.78-1.52-.93.24-1.39.36-2.32.6,0-1.09,0-1.63,0-2.72.17-.17.4-.3.7-.41.3-.1.63-.16.99-.16.5,0,.93.1,1.28.3.35.2.68.56.97,1.08,2.39,4.01,3.59,6.01,5.98,10.02.33.56.68,1.19,1.05,1.86.36.68.7,1.33,1.02,1.94s.56,1.12.75,1.52c.94-.24,1.41-.36,2.35-.59ZM68.33,89.64c.85-.08,1.28-.11,2.13-.19.08.65.16,1.41.22,2.29s.11,1.78.14,2.71c.03.93.05,1.81.05,2.65,0,3.75,0,5.62,0,9.36-.1.04-.27.09-.49.14s-.44.08-.67.08c-.46,0-.8-.09-1.03-.27-.23-.18-.34-.46-.34-.86,0-6.36,0-9.55,0-15.91ZM83.42,104.35c-.86.08-1.3.11-2.16.19-.21-1.75-.33-3.54-.36-5.37-.03-1.83-.05-3.6-.05-5.31,0-2.53,0-3.8,0-6.33.13-.04.29-.09.5-.14.21-.05.44-.08.69-.08.46,0,.8.09,1.03.27.23.18.34.46.34.86,0,6.36,0,9.55,0,15.91Z"/>
      <path class="cls-4" d="M93.75,97.25h-2.54c0-3.88,0-5.82,0-9.71.1-.04.27-.09.49-.14.22-.05.45-.08.7-.08.46,0,.8.09,1.02.27.22.18.33.48.33.89,0,3.51,0,5.26,0,8.77ZM91.22,95.15h2.54c0,4.52,0,6.78,0,11.31-.1.04-.26.09-.47.14-.21.05-.44.08-.69.08-.46,0-.8-.09-1.03-.28-.23-.19-.34-.48-.34-.88,0-4.15,0-6.22,0-10.37Z"/>
      <path class="cls-4" d="M106.84,104.79c1.4,0,2.46-.32,3.18-.96.72-.64,1.08-1.46,1.08-2.46,0-.86-.28-1.56-.83-2.11-.55-.55-1.43-1.01-2.62-1.36-1.09-.33-1.63-.49-2.72-.81-.88-.27-1.64-.62-2.29-1.05-.65-.43-1.14-.96-1.49-1.6-.34-.64-.52-1.38-.52-2.24,0-1.61.58-2.87,1.75-3.77,1.17-.91,2.72-1.36,4.67-1.36,1.13,0,2.13.12,3.02.36.89.24,1.59.55,2.1.92.51.38.77.77.77,1.19,0,.27-.07.52-.22.74-.15.22-.33.39-.56.52-.52-.42-1.23-.78-2.11-1.1-.89-.31-1.85-.47-2.9-.47-1.21,0-2.17.27-2.88.8-.71.53-1.06,1.26-1.06,2.18,0,.73.26,1.33.77,1.79.51.46,1.34.86,2.49,1.19.76.23,1.15.34,1.91.56,1.65.46,2.95,1.13,3.9,2,.95.88,1.42,2.09,1.42,3.63,0,1.65-.6,2.99-1.8,4.01-1.2,1.02-2.89,1.53-5.06,1.53-1.27,0-2.39-.14-3.34-.42-.95-.28-1.69-.64-2.22-1.06-.53-.43-.8-.85-.8-1.27,0-.35.11-.65.33-.89.22-.24.47-.41.77-.52.48.46,1.16.91,2.04,1.36.88.45,1.95.67,3.23.67Z"/>
      <path class="cls-4" d="M118.87,97.84c3.06-4.08,4.58-6.13,7.64-10.21.33-.1.73-.19,1.19-.27.46-.07.87-.11,1.22-.11.54,0,1.06.07,1.57.22s.91.41,1.22.78c.31.38.47.91.47,1.6,0,3.58,0,5.37,0,8.96h2.63c.1.19.21.45.33.78.11.33.17.69.17,1.06,0,.67-.16,1.15-.47,1.46-.31.3-.71.45-1.19.45h-1.47v3.95c-.19.02-.49.07-.89.14-.41.07-.79.11-1.14.11-.79,0-1.41-.11-1.85-.34-.44-.23-.66-.76-.66-1.6,0-.9,0-1.35,0-2.25h-7.8c-.42-.21-.78-.53-1.08-.97-.3-.44-.45-.97-.45-1.6,0-.35.04-.73.13-1.13.08-.4.23-.74.44-1.03ZM127.86,98.81c.01-2.74.02-4.12.03-6.86h-.09c-1.85,2.74-2.78,4.12-4.63,6.86h4.7Z"/>
      <path class="cls-4" d="M148.87,100.41h-4.26c-.54-.79-1.14-1.69-1.79-2.69-.65-1-1.28-2.04-1.91-3.12-.63-1.07-1.22-2.11-1.77-3.12-.55-1-1-1.9-1.33-2.69.23-.33.55-.65.96-.94.41-.29.92-.44,1.55-.44.71,0,1.28.15,1.72.45.44.3.86.85,1.25,1.64.08.13.23.4.45.83.22.43.48.92.78,1.49.3.56.6,1.14.89,1.72.29.58.55,1.09.77,1.5.22.42.36.68.42.78h.16c.48-.96.91-1.85,1.28-2.66.38-.81.75-1.64,1.11-2.49.37-.85.77-1.77,1.21-2.77.31-.17.67-.29,1.06-.38.4-.08.77-.13,1.13-.13.65,0,1.19.17,1.63.5s.66.83.66,1.5c0,.25-.09.62-.28,1.1-.19.48-.51,1.14-.97,1.99-.46.85-1.07,1.91-1.83,3.19-.76,1.28-1.73,2.86-2.9,4.71ZM144.36,98.69h4.7c0,3.12,0,4.68,0,7.8-.21.06-.52.12-.92.17-.41.05-.82.08-1.24.08-.94,0-1.6-.16-1.97-.49-.38-.32-.56-.89-.56-1.71,0-2.34,0-3.51,0-5.86Z"/>
      <path class="cls-4" d="M177.71,97c0,2.17-.43,4.01-1.28,5.51-.86,1.5-2.02,2.64-3.48,3.4-1.46.76-3.12,1.14-4.98,1.14s-3.52-.38-4.98-1.14c-1.46-.76-2.61-1.89-3.44-3.4-.84-1.5-1.25-3.34-1.25-5.51,0-2.17.43-4,1.28-5.5.86-1.49,2.02-2.62,3.49-3.38,1.47-.76,3.11-1.14,4.9-1.14s3.49.38,4.96,1.14c1.47.76,2.64,1.89,3.49,3.38.86,1.49,1.28,3.32,1.28,5.5ZM172.8,97c0-2-.43-3.53-1.3-4.57-.87-1.04-2.04-1.57-3.52-1.57s-2.59.52-3.46,1.55c-.87,1.03-1.3,2.56-1.3,4.59,0,2.05.43,3.59,1.3,4.62.87,1.03,2.03,1.55,3.49,1.55s2.63-.52,3.49-1.55c.87-1.03,1.3-2.57,1.3-4.62Z"/>
      <path class="cls-4" d="M188.08,98.53c-1.92,0-2.87,0-4.79,0v-11.05c.23-.04.55-.09.97-.16s.83-.09,1.25-.09c.9,0,1.55.16,1.96.47.41.31.61.91.61,1.78v9.05ZM191.49,107.05c-1.71,0-3.18-.31-4.4-.92-1.22-.62-2.16-1.48-2.82-2.58-.66-1.11-.99-2.4-.99-3.88v-2.07h4.79v1.94c0,1.15.32,2.04.96,2.68.64.64,1.46.96,2.46.96s1.82-.32,2.46-.96c.64-.64.96-1.53.96-2.68v-1.94h4.79v2.07c0,1.48-.32,2.78-.97,3.88-.65,1.11-1.59,1.97-2.82,2.58-1.23.62-2.7.92-4.42.92ZM199.7,98.59h-4.79c0-4.45,0-6.67,0-11.12.23-.04.56-.09.99-.16.43-.06.84-.09,1.24-.09.9,0,1.55.16,1.96.47.41.31.61.91.61,1.78,0,3.65,0,5.47,0,9.11Z"/>
    </g>
    <g>
      <g>
        <g>
          <path class="cls-1" d="M171.77,74.12l-25.97-63.91s-3.11.01-8.19.03l20.79,63.79,13.37.09Z"/>
          <polygon class="cls-1" points="58.82 20.66 41.59 74.04 155.32 74.21 138.11 20.66 58.82 20.66"/>
          <path class="cls-1" d="M134.75,10.26c-18.23.07-54.4.21-72.67.31l-2.45,7.6h77.67l-2.55-7.91Z"/>
          <path class="cls-1" d="M38.87,74.04l4.6-14.66,15.74-48.79c-5.16.03-8.32.06-8.32.08l-26.09,63.36h14.07Z"/>
          <rect class="cls-3" x="84.84" y="39.84" width="27.01" height="2.5" transform="translate(139.44 -57.25) rotate(90)"/>
          <rect class="cls-3" x="46.18" y="53.26" width="103.82" height="2.5" transform="translate(196.18 109.01) rotate(180)"/>
          <circle class="cls-3" cx="91" cy="16.35" r="16.35"/>
          <g>
            <path class="cls-2" d="M77.04,20.03c-.31-1.18-.47-2.41-.47-3.69,0-5.98,3.64-11.12,8.83-13.31.61,1.48.94,3.09.94,4.8,0,5.81-3.94,10.72-9.3,12.2Z"/>
            <path class="cls-2" d="M93.51,25.72c0,1.63.26,3.21.77,4.69-1.05.25-2.15.38-3.28.38-5.93,0-11.01-3.57-13.25-8.68,6.21-1.77,10.77-7.5,10.77-14.27,0-1.93-.37-3.79-1.06-5.48,1.13-.28,2.31-.44,3.53-.44,6.22,0,11.52,3.93,13.55,9.45-6.35,1.68-11.04,7.48-11.04,14.35Z"/>
            <path class="cls-2" d="M105.44,16.35c0,6.08-3.76,11.28-9.07,13.4-.43-1.26-.66-2.62-.66-4.03,0-5.87,4.02-10.82,9.45-12.24.19.93.28,1.88.28,2.87Z"/>
          </g>
        </g>
        <path class="cls-6" d="M114.11,33.32c-1.74,2.25-4.19,4.11-6.81,5.1"/>
        <path class="cls-6" d="M114.95,24.67c-1.06,4.05-4.87,7.89-9.07,9.46"/>
      </g>
      <text class="cls-5" transform="translate(0 48.51)"><tspan x="0" y="0">EST.</tspan></text>
      <text class="cls-5" transform="translate(170.14 48.51)"><tspan x="0" y="0">2009</tspan></text>
    </g>
  </g>
</svg>